<?xml version="1.0" encoding="UTF-8"?>
<svg id="Warstwa_2" data-name="Warstwa 2" xmlns="http://www.w3.org/2000/svg" viewBox="0 0 252 283.15">
  <defs>
    <style>
      .cls-1 {
        fill: #13a4de;
      }
    </style>
  </defs>
  <g id="Warstwa_2-2" data-name="Warstwa 2">
    <path class="cls-1" d="m159.88,4.23c-4.06-.29-7.35-.31-10.67-.87s-11.91-3.72-19.74-2.63c-1.15.16-5.32-.97-6.65-.68-2.56.57-4.15,2.29-7.07,3.51-1.55.65-3.21.87-4.61,1.63-2.14,1.17-4.04,3.46-4.03,4.29,0,.83,1.82,3.07,1.82,3.07,0,0,.94,2.35,1.7,2.63s5.21,1.17,7.67,1.58c2.52.42,9.71.46,17.05.15,0,0,0,0,0,.01h99.89l-103.74,177.84L27.75,16.91h79.49c-.56-.61-1.17-1.49-1.77-2.77-2.38-2.95-2.38-4.42-2.38-5.06,0-1.83,1.18-3.56,2.56-4.92H0l63,108,63,108,63-108L252,4.15s-88.06.37-92.12.08Zm-35.02.3c-1.24.82-5.43.13-5.43.13,1.64-.73,4.28-2.25,6.71-2.25,0,0-.33,1.5-1.27,2.12Z"/>
    <path class="cls-1" d="m156.18,41.95v1.89c-1.33.13-2.55.66-3.67,1.61-1.12.95-2.17,2.62-3.14,5.01l-17.18,40.66h-1.78l-19.27-41.89c-1.12-2.46-2.22-3.96-3.3-4.49-1.08-.54-2.01-.8-2.78-.8v-1.99c1.4.06,2.84.14,4.35.24,1.5.09,3.12.14,4.87.14,2.16,0,4.45-.03,6.86-.09,2.41-.06,4.66-.16,6.76-.28v1.99c-1.75,0-3.3.11-4.66.33-1.36.22-2.24.84-2.62,1.84-.38,1.01-.05,2.74,1,5.2l13.09,29.22-.63.47,11.94-28.27c.91-2.08,1.27-3.73,1.1-4.96-.18-1.23-.87-2.16-2.09-2.79-1.22-.63-3.09-1.01-5.6-1.13v-1.89c1.26.06,2.34.11,3.25.14.91.03,1.8.06,2.67.1.87.03,1.83.05,2.88.05,1.61,0,3.05-.03,4.35-.09,1.29-.06,2.5-.13,3.61-.19Z"/>
    <polygon class="cls-1" points="168.16 30.37 154.65 25.06 154.65 28.24 93.1 28.24 93.1 32.5 154.65 32.5 154.65 35.68 168.16 30.37"/>
    <g>
      <rect class="cls-1" x="125.28" y="156.94" width="12.5" height="2.22"/>
      <rect class="cls-1" x="128.81" y="98.38" width="5.44" height="60.78"/>
      <path class="cls-1" d="m165.93,97.5c-.58,0-1.15-.01-1.69-.01-4.46,0-8.15.29-11.68,3.92-4.91,5.05-5.17,12.45-5.26,15.25l-.23,8.91c0,4.42-1.45,9.83-5.51,11.74-3.71,1.75-8.81,1.84-9.79,1.85h-.43c-.98,0-6.08-.1-9.79-1.85-4.07-1.91-5.51-7.32-5.51-11.77l-.23-8.89c-.1-2.79-.35-10.19-5.26-15.24-3.53-3.63-7.22-3.92-11.68-3.92-.55,0-1.11,0-1.69.01h-2.24v2.85s3.94,0,4.38.08c1.31.2,2.93,1.42,4.01,2.49,3.32,3.3,4.07,7.91,4.71,13.63l.09,8.99c.2,3.4,1.25,8.31,5.07,12.33,4.26,4.48,12.24,5.15,16.62,5.15h1.96s1.53,0,1.53,0c4.38,0,12.36-.67,16.62-5.15,3.83-4.02,4.87-8.93,5.07-12.38l.08-8.92c.64-5.71,1.38-10.34,4.71-13.65,1.08-1.07,2.7-2.29,4.01-2.49.44-.07,4.37-.04,4.37-.04v-2.89h-2.23Z"/>
    </g>
    <g>
      <path class="cls-1" d="m1.18,273.55c-.33,0-.6-.12-.83-.35-.23-.24-.34-.52-.34-.86v-32.92c0-.37.11-.67.34-.91.23-.24.51-.35.83-.35h13.13c2.55,0,4.77.41,6.66,1.24,1.89.83,3.36,2.07,4.41,3.74,1.05,1.67,1.57,3.75,1.57,6.25s-.52,4.61-1.57,6.24c-1.05,1.64-2.52,2.86-4.41,3.67-1.89.81-4.12,1.21-6.66,1.21h-7.3v11.83c0,.34-.11.62-.32.86-.21.24-.5.35-.86.35H1.18Zm5.73-18.66h7.15c1.89,0,3.35-.46,4.36-1.39,1.01-.93,1.52-2.3,1.52-4.12,0-1.69-.47-3.04-1.42-4.07-.95-1.03-2.43-1.54-4.46-1.54h-7.15v11.12Z"/>
      <path class="cls-1" d="m36.3,283.15c-.26,0-.49-.1-.69-.3-.2-.2-.29-.44-.29-.71,0-.13,0-.26.02-.38.02-.12.07-.26.17-.43l3.82-9.35-9.41-22.9c-.13-.34-.2-.57-.2-.71.03-.3.15-.56.34-.78s.44-.33.74-.33h3.97c.39,0,.69.1.88.3.2.2.34.42.44.66l6.52,16.53,6.71-16.53c.1-.27.24-.5.44-.68s.49-.28.88-.28h3.92c.26,0,.5.1.71.3.21.2.32.44.32.71,0,.2-.07.47-.2.81l-13.86,33.12c-.13.27-.29.5-.49.68-.2.19-.49.28-.88.28h-3.87Z"/>
      <path class="cls-1" d="m61.63,273.55c-.36,0-.65-.12-.88-.35-.23-.24-.34-.52-.34-.86v-32.92c0-.37.11-.67.34-.91.23-.24.52-.35.88-.35h3.87c.46,0,.8.13,1.03.38.23.25.37.45.44.58l9.46,18.2,9.55-18.2c.07-.13.21-.33.44-.58.23-.25.57-.38,1.03-.38h3.82c.36,0,.65.12.88.35.23.24.34.54.34.91v32.92c0,.34-.12.62-.34.86-.23.24-.52.35-.88.35h-4.11c-.36,0-.65-.12-.86-.35-.21-.24-.32-.52-.32-.86v-21.89l-6.86,13.5c-.16.3-.38.56-.64.78-.26.22-.6.33-1.03.33h-2.01c-.46,0-.81-.11-1.05-.33-.25-.22-.45-.48-.61-.78l-6.86-13.5v21.89c0,.34-.11.62-.34.86-.23.24-.51.35-.83.35h-4.12Z"/>
      <path class="cls-1" d="m101.31,273.55c-.33,0-.6-.12-.83-.35-.23-.24-.34-.52-.34-.86v-32.92c0-.37.11-.67.34-.91.23-.24.51-.35.83-.35h13.13c2.55,0,4.77.41,6.66,1.24,1.89.83,3.36,2.07,4.41,3.74,1.05,1.67,1.57,3.75,1.57,6.25s-.52,4.61-1.57,6.24c-1.05,1.64-2.52,2.86-4.41,3.67-1.89.81-4.12,1.21-6.66,1.21h-7.3v11.83c0,.34-.11.62-.32.86-.21.24-.5.35-.86.35h-4.65Zm5.73-18.66h7.15c1.89,0,3.35-.46,4.36-1.39,1.01-.93,1.52-2.3,1.52-4.12,0-1.69-.47-3.04-1.42-4.07-.95-1.03-2.43-1.54-4.46-1.54h-7.15v11.12Z"/>
      <path class="cls-1" d="m133.59,273.55c-.33,0-.6-.12-.83-.35-.23-.24-.34-.52-.34-.86v-32.92c0-.37.11-.67.34-.91.23-.24.51-.35.83-.35h11.95c3.3,0,6.02.52,8.16,1.57,2.14,1.05,3.76,2.6,4.85,4.65,1.09,2.06,1.66,4.57,1.69,7.53.07,1.48.1,2.8.1,3.94s-.03,2.44-.1,3.89c-.07,3.13-.62,5.72-1.67,7.76-1.05,2.04-2.62,3.56-4.73,4.55-2.11.99-4.79,1.49-8.06,1.49h-12.2Zm5.63-5.81h6.32c1.83,0,3.31-.27,4.46-.81,1.14-.54,1.98-1.41,2.52-2.6.54-1.2.82-2.77.86-4.73.03-1.01.06-1.9.07-2.65.02-.76.02-1.52,0-2.28-.02-.76-.04-1.63-.07-2.6-.07-2.76-.74-4.8-2.01-6.12s-3.3-1.97-6.07-1.97h-6.07v23.76Z"/>
      <path class="cls-1" d="m164.06,273.55c-.26,0-.5-.1-.71-.3-.21-.2-.32-.45-.32-.76,0-.13.03-.29.1-.45l11.81-32.61c.1-.34.29-.63.56-.89.28-.25.66-.38,1.15-.38h5.34c.49,0,.87.13,1.13.38.26.25.46.55.59.89l11.81,32.61c.03.17.05.32.05.45,0,.3-.1.56-.29.76-.2.2-.42.3-.69.3h-4.26c-.46,0-.79-.11-1-.33-.21-.22-.35-.43-.42-.63l-2.3-6.17h-14.55l-2.3,6.17c-.07.2-.2.41-.42.63-.21.22-.55.33-1,.33h-4.26Zm9.7-12.94h11.12l-5.58-15.62-5.54,15.62Z"/>
      <path class="cls-1" d="m205.26,273.55c-.33,0-.6-.12-.83-.35-.23-.24-.34-.52-.34-.86v-27.96h-9.06c-.33,0-.6-.12-.83-.35-.23-.23-.34-.52-.34-.86v-3.74c0-.37.11-.67.34-.91.23-.24.51-.35.83-.35h24.98c.36,0,.65.12.88.35.23.24.34.54.34.91v3.74c0,.34-.11.62-.34.86-.23.24-.52.35-.88.35h-9.01v27.96c0,.34-.11.62-.34.86-.23.24-.52.35-.88.35h-4.51Z"/>
      <path class="cls-1" d="m220.5,273.55c-.26,0-.5-.1-.71-.3-.21-.2-.32-.45-.32-.76,0-.13.03-.29.1-.45l11.81-32.61c.1-.34.29-.63.56-.89.28-.25.66-.38,1.15-.38h5.34c.49,0,.87.13,1.13.38.26.25.46.55.59.89l11.81,32.61c.03.17.05.32.05.45,0,.3-.1.56-.29.76-.2.2-.42.3-.69.3h-4.26c-.46,0-.79-.11-1-.33-.21-.22-.35-.43-.42-.63l-2.3-6.17h-14.55l-2.3,6.17c-.07.2-.2.41-.42.63-.21.22-.55.33-1,.33h-4.26Zm9.7-12.94h11.12l-5.58-15.62-5.54,15.62Z"/>
    </g>
  </g>
</svg>